<svg width="571" height="357" viewBox="0 0 571 357" fill="none" xmlns="http://www.w3.org/2000/svg">
<g clip-path="url(#clip0_5_96)">
<g clip-path="url(#clip1_5_96)">
<path d="M4.80453 3.63529H5.78684L7.49474 7.80551H7.55761L9.26552 3.63529H10.2478V9H9.47769V5.11792H9.42792L7.84576 8.99214H7.2066L5.62443 5.1153H5.57466V9H4.80453V3.63529Z" fill="#333333"/>
<path d="M86.7095 4.33208V3.63529H90.8613V4.33208H89.1875V9H88.3807V4.33208H86.7095Z" fill="#333333"/>
<path d="M170.194 9L168.706 3.63529H169.557L170.603 7.7898H170.652L171.739 3.63529H172.583L173.67 7.79242H173.72L174.762 3.63529H175.616L174.126 9H173.311L172.182 4.98171H172.14L171.011 9H170.194Z" fill="#333333"/>
<path d="M251.048 4.33208V3.63529H255.2V4.33208H253.526V9H252.719V4.33208H251.048Z" fill="#333333"/>
<path d="M333.584 9V3.63529H336.911V4.33208H334.394V5.96664H336.673V6.6608H334.394V9H333.584Z" fill="#333333"/>
<path d="M418.705 5.04458C418.677 4.7966 418.562 4.6045 418.359 4.46829C418.157 4.33033 417.902 4.26135 417.595 4.26135C417.375 4.26135 417.184 4.29628 417.024 4.36613C416.863 4.43424 416.738 4.52854 416.649 4.64904C416.562 4.76779 416.518 4.90313 416.518 5.05506C416.518 5.18254 416.548 5.29256 416.607 5.38511C416.668 5.47767 416.748 5.55538 416.845 5.61824C416.945 5.67937 417.051 5.73088 417.165 5.77279C417.278 5.81296 417.388 5.84614 417.492 5.87233L418.016 6.00855C418.187 6.05046 418.363 6.10722 418.543 6.17881C418.723 6.25041 418.889 6.34472 419.043 6.46172C419.197 6.57872 419.321 6.72367 419.415 6.89655C419.511 7.06944 419.559 7.27638 419.559 7.51737C419.559 7.82123 419.481 8.09104 419.323 8.32679C419.168 8.56255 418.942 8.74853 418.645 8.88474C418.35 9.02096 417.993 9.08906 417.574 9.08906C417.172 9.08906 416.824 9.02532 416.531 8.89784C416.238 8.77036 416.008 8.58961 415.842 8.35561C415.676 8.11985 415.585 7.84044 415.567 7.51737H416.379C416.395 7.71121 416.458 7.87275 416.568 8.00198C416.679 8.12946 416.822 8.22463 416.995 8.2875C417.169 8.34862 417.361 8.37918 417.568 8.37918C417.797 8.37918 418.001 8.34338 418.179 8.27178C418.359 8.19844 418.5 8.09715 418.603 7.96792C418.706 7.83695 418.758 7.68415 418.758 7.50951C418.758 7.3506 418.712 7.2205 418.621 7.11921C418.532 7.01792 418.411 6.9341 418.257 6.86774C418.105 6.80138 417.933 6.74288 417.741 6.69223L417.107 6.51935C416.678 6.40234 416.337 6.23033 416.086 6.00331C415.836 5.77629 415.711 5.47592 415.711 5.10221C415.711 4.79311 415.795 4.5233 415.963 4.29279C416.13 4.06227 416.357 3.88327 416.644 3.75579C416.93 3.62656 417.253 3.56195 417.613 3.56195C417.976 3.56195 418.297 3.62569 418.574 3.75317C418.854 3.88065 419.074 4.05616 419.234 4.27969C419.395 4.50147 419.479 4.75643 419.486 5.04458H418.705Z" fill="#333333"/>
<path d="M500.9 5.04458C500.872 4.7966 500.757 4.6045 500.554 4.46829C500.352 4.33033 500.097 4.26135 499.79 4.26135C499.569 4.26135 499.379 4.29628 499.218 4.36613C499.058 4.43424 498.933 4.52854 498.844 4.64904C498.757 4.76779 498.713 4.90313 498.713 5.05506C498.713 5.18254 498.743 5.29256 498.802 5.38511C498.863 5.47767 498.943 5.55538 499.04 5.61824C499.14 5.67937 499.246 5.73088 499.36 5.77279C499.473 5.81296 499.583 5.84614 499.687 5.87233L500.211 6.00855C500.382 6.05046 500.558 6.10722 500.738 6.17881C500.918 6.25041 501.084 6.34472 501.238 6.46172C501.392 6.57872 501.516 6.72367 501.61 6.89655C501.706 7.06944 501.754 7.27638 501.754 7.51737C501.754 7.82123 501.676 8.09104 501.518 8.32679C501.363 8.56255 501.137 8.74853 500.84 8.88474C500.545 9.02096 500.188 9.08906 499.769 9.08906C499.367 9.08906 499.019 9.02532 498.726 8.89784C498.433 8.77036 498.203 8.58961 498.037 8.35561C497.871 8.11985 497.779 7.84044 497.762 7.51737H498.574C498.59 7.71121 498.653 7.87275 498.763 8.00198C498.874 8.12946 499.017 8.22463 499.19 8.2875C499.364 8.34862 499.556 8.37918 499.763 8.37918C499.992 8.37918 500.196 8.34338 500.374 8.27178C500.554 8.19844 500.695 8.09715 500.798 7.96792C500.901 7.83695 500.953 7.68415 500.953 7.50951C500.953 7.3506 500.907 7.2205 500.816 7.11921C500.727 7.01792 500.606 6.9341 500.452 6.86774C500.3 6.80138 500.128 6.74288 499.936 6.69223L499.302 6.51935C498.873 6.40234 498.532 6.23033 498.281 6.00331C498.031 5.77629 497.906 5.47592 497.906 5.10221C497.906 4.79311 497.99 4.5233 498.158 4.29279C498.325 4.06227 498.552 3.88327 498.839 3.75579C499.125 3.62656 499.448 3.56195 499.808 3.56195C500.171 3.56195 500.492 3.62569 500.769 3.75317C501.049 3.88065 501.269 4.05616 501.429 4.27969C501.59 4.50147 501.674 4.75643 501.681 5.04458H500.9Z" fill="#333333"/>
</g>
<path d="M6.59888 27.1109C6.185 27.1092 5.83137 27 5.53799 26.7835C5.24461 26.5669 5.0202 26.2517 4.86478 25.8378C4.70936 25.424 4.63165 24.9254 4.63165 24.3421C4.63165 23.7606 4.70936 23.2638 4.86478 22.8516C5.02195 22.4395 5.24723 22.1252 5.54061 21.9086C5.83574 21.6921 6.18849 21.5838 6.59888 21.5838C7.00927 21.5838 7.36115 21.6929 7.65453 21.9112C7.94792 22.1278 8.17232 22.4421 8.32774 22.8542C8.48491 23.2646 8.56349 23.7606 8.56349 24.3421C8.56349 24.9271 8.48578 25.4266 8.33036 25.8405C8.17494 26.2526 7.95053 26.5678 7.65715 26.7861C7.36377 27.0026 7.01101 27.1109 6.59888 27.1109ZM6.59888 26.4115C6.96212 26.4115 7.24589 26.2343 7.45021 25.8798C7.65628 25.5253 7.75931 25.0127 7.75931 24.3421C7.75931 23.8968 7.71216 23.5205 7.61786 23.2131C7.5253 22.904 7.39171 22.67 7.21708 22.5111C7.04419 22.3504 6.83813 22.2701 6.59888 22.2701C6.23739 22.2701 5.95361 22.4482 5.74755 22.8045C5.54148 23.1607 5.43758 23.6733 5.43583 24.3421C5.43583 24.7892 5.48211 25.1673 5.57466 25.4764C5.66896 25.7837 5.80256 26.0168 5.97544 26.1758C6.14833 26.3329 6.35614 26.4115 6.59888 26.4115ZM11.5281 21.6571V27.0219H10.7161V22.4692H10.6846L9.40107 23.3074V22.5321L10.7396 21.6571H11.5281Z" fill="#333333"/>
<rect y="14.7529" width="82.1949" height="68.4958" stroke="#E0E0E0" stroke-width="0.526891"/>
<path d="M88.7938 27.1109C88.3799 27.1092 88.0263 27 87.7329 26.7835C87.4396 26.5669 87.2152 26.2517 87.0597 25.8378C86.9043 25.424 86.8266 24.9254 86.8266 24.3421C86.8266 23.7606 86.9043 23.2638 87.0597 22.8516C87.2169 22.4395 87.4422 22.1252 87.7356 21.9086C88.0307 21.6921 88.3834 21.5838 88.7938 21.5838C89.2042 21.5838 89.5561 21.6929 89.8495 21.9112C90.1429 22.1278 90.3673 22.4421 90.5227 22.8542C90.6799 23.2646 90.7584 23.7606 90.7584 24.3421C90.7584 24.9271 90.6807 25.4266 90.5253 25.8405C90.3699 26.2526 90.1455 26.5678 89.8521 26.7861C89.5587 27.0026 89.206 27.1109 88.7938 27.1109ZM88.7938 26.4115C89.1571 26.4115 89.4408 26.2343 89.6452 25.8798C89.8512 25.5253 89.9543 25.0127 89.9543 24.3421C89.9543 23.8968 89.9071 23.5205 89.8128 23.2131C89.7203 22.904 89.5867 22.67 89.412 22.5111C89.2391 22.3504 89.0331 22.2701 88.7938 22.2701C88.4323 22.2701 88.1486 22.4482 87.9425 22.8045C87.7364 23.1607 87.6325 23.6733 87.6308 24.3421C87.6308 24.7892 87.6771 25.1673 87.7696 25.4764C87.8639 25.7837 87.9975 26.0168 88.1704 26.1758C88.3433 26.3329 88.5511 26.4115 88.7938 26.4115ZM91.6877 27.0219V26.4351L93.503 24.5543C93.6968 24.35 93.8566 24.171 93.9824 24.0173C94.1099 23.8619 94.205 23.7143 94.2679 23.5746C94.3308 23.4349 94.3622 23.2865 94.3622 23.1293C94.3622 22.9512 94.3203 22.7975 94.2365 22.6683C94.1526 22.5373 94.0383 22.4369 93.8933 22.367C93.7484 22.2954 93.5851 22.2596 93.4035 22.2596C93.2114 22.2596 93.0437 22.2989 92.9005 22.3775C92.7573 22.4561 92.6473 22.567 92.5705 22.7102C92.4936 22.8534 92.4552 23.021 92.4552 23.2131H91.6825C91.6825 22.8866 91.7576 22.601 91.9077 22.3565C92.0579 22.1121 92.264 21.9226 92.5259 21.7881C92.7879 21.6519 93.0856 21.5838 93.4192 21.5838C93.7562 21.5838 94.0531 21.651 94.3098 21.7855C94.5683 21.9182 94.77 22.0998 94.9149 22.3304C95.0599 22.5591 95.1323 22.8176 95.1323 23.1057C95.1323 23.3048 95.0948 23.4995 95.0197 23.6899C94.9463 23.8802 94.818 24.0924 94.6346 24.3264C94.4513 24.5587 94.1963 24.8407 93.8697 25.1725L92.8036 26.2884V26.3277H95.2188V27.0219H91.6877Z" fill="#333333"/>
<rect x="82.1949" y="14.7529" width="82.1949" height="68.4958" stroke="#E0E0E0" stroke-width="0.526891"/>
<path d="M170.989 27.1109C170.575 27.1092 170.221 27 169.928 26.7835C169.634 26.5669 169.41 26.2517 169.255 25.8378C169.099 25.424 169.022 24.9254 169.022 24.3421C169.022 23.7606 169.099 23.2638 169.255 22.8516C169.412 22.4395 169.637 22.1252 169.931 21.9086C170.226 21.6921 170.578 21.5838 170.989 21.5838C171.399 21.5838 171.751 21.6929 172.044 21.9112C172.338 22.1278 172.562 22.4421 172.718 22.8542C172.875 23.2646 172.953 23.7606 172.953 24.3421C172.953 24.9271 172.876 25.4266 172.72 25.8405C172.565 26.2526 172.34 26.5678 172.047 26.7861C171.754 27.0026 171.401 27.1109 170.989 27.1109ZM170.989 26.4115C171.352 26.4115 171.636 26.2343 171.84 25.8798C172.046 25.5253 172.149 25.0127 172.149 24.3421C172.149 23.8968 172.102 23.5205 172.008 23.2131C171.915 22.904 171.782 22.67 171.607 22.5111C171.434 22.3504 171.228 22.2701 170.989 22.2701C170.627 22.2701 170.344 22.4482 170.137 22.8045C169.931 23.1607 169.827 23.6733 169.826 24.3421C169.826 24.7892 169.872 25.1673 169.965 25.4764C170.059 25.7837 170.192 26.0168 170.365 26.1758C170.538 26.3329 170.746 26.4115 170.989 26.4115ZM175.75 27.0952C175.391 27.0952 175.069 27.0332 174.786 26.9092C174.505 26.7852 174.283 26.6132 174.118 26.3932C173.956 26.1714 173.869 25.9147 173.856 25.623H174.679C174.689 25.782 174.743 25.9199 174.839 26.0369C174.937 26.1522 175.064 26.2412 175.221 26.3041C175.378 26.367 175.553 26.3984 175.745 26.3984C175.956 26.3984 176.143 26.3617 176.306 26.2884C176.47 26.215 176.598 26.1129 176.691 25.9819C176.783 25.8492 176.83 25.6964 176.83 25.5235C176.83 25.3436 176.783 25.1856 176.691 25.0494C176.6 24.9114 176.466 24.8031 176.29 24.7246C176.115 24.646 175.904 24.6067 175.656 24.6067H175.203V23.9466H175.656C175.855 23.9466 176.03 23.9108 176.18 23.8392C176.332 23.7676 176.451 23.668 176.536 23.5406C176.622 23.4113 176.665 23.2603 176.665 23.0874C176.665 22.9215 176.627 22.7774 176.552 22.6552C176.479 22.5312 176.374 22.4343 176.238 22.3644C176.103 22.2946 175.944 22.2596 175.761 22.2596C175.586 22.2596 175.423 22.2919 175.271 22.3565C175.121 22.4194 174.999 22.5102 174.904 22.629C174.81 22.746 174.759 22.8866 174.752 23.0507H173.969C173.978 22.7608 174.063 22.5059 174.226 22.2858C174.39 22.0658 174.606 21.8938 174.875 21.7698C175.144 21.6458 175.443 21.5838 175.771 21.5838C176.115 21.5838 176.412 21.651 176.662 21.7855C176.913 21.9182 177.107 22.0955 177.243 22.3173C177.381 22.539 177.45 22.7818 177.448 23.0455C177.45 23.3458 177.366 23.6008 177.196 23.8104C177.029 24.0199 176.805 24.1605 176.526 24.2321V24.274C176.882 24.3281 177.158 24.4696 177.353 24.6984C177.551 24.9271 177.649 25.2109 177.647 25.5497C177.649 25.8448 177.567 26.1094 177.401 26.3434C177.236 26.5774 177.012 26.7616 176.727 26.8961C176.443 27.0288 176.117 27.0952 175.75 27.0952Z" fill="#333333"/>
<rect x="164.39" y="14.7529" width="82.1949" height="68.4958" stroke="#E0E0E0" stroke-width="0.526891"/>
<path d="M253.184 27.1109C252.77 27.1092 252.416 27 252.123 26.7835C251.829 26.5669 251.605 26.2517 251.45 25.8378C251.294 25.424 251.216 24.9254 251.216 24.3421C251.216 23.7606 251.294 23.2638 251.45 22.8516C251.607 22.4395 251.832 22.1252 252.125 21.9086C252.421 21.6921 252.773 21.5838 253.184 21.5838C253.594 21.5838 253.946 21.6929 254.239 21.9112C254.533 22.1278 254.757 22.4421 254.913 22.8542C255.07 23.2646 255.148 23.7606 255.148 24.3421C255.148 24.9271 255.071 25.4266 254.915 25.8405C254.76 26.2526 254.535 26.5678 254.242 26.7861C253.949 27.0026 253.596 27.1109 253.184 27.1109ZM253.184 26.4115C253.547 26.4115 253.831 26.2343 254.035 25.8798C254.241 25.5253 254.344 25.0127 254.344 24.3421C254.344 23.8968 254.297 23.5205 254.203 23.2131C254.11 22.904 253.977 22.67 253.802 22.5111C253.629 22.3504 253.423 22.2701 253.184 22.2701C252.822 22.2701 252.538 22.4482 252.332 22.8045C252.126 23.1607 252.022 23.6733 252.021 24.3421C252.021 24.7892 252.067 25.1673 252.159 25.4764C252.254 25.7837 252.387 26.0168 252.56 26.1758C252.733 26.3329 252.941 26.4115 253.184 26.4115ZM255.965 25.9741V25.3192L258.283 21.6571H258.799V22.6211H258.472L256.814 25.2458V25.2878H259.991V25.9741H255.965ZM258.508 27.0219V25.775L258.514 25.4764V21.6571H259.281V27.0219H258.508Z" fill="#333333"/>
<rect x="246.585" y="14.7529" width="82.1949" height="68.4958" stroke="#E0E0E0" stroke-width="0.526891"/>
<path d="M335.379 27.1109C334.965 27.1092 334.611 27 334.318 26.7835C334.024 26.5669 333.8 26.2517 333.645 25.8378C333.489 25.424 333.411 24.9254 333.411 24.3421C333.411 23.7606 333.489 23.2638 333.645 22.8516C333.802 22.4395 334.027 22.1252 334.32 21.9086C334.615 21.6921 334.968 21.5838 335.379 21.5838C335.789 21.5838 336.141 21.6929 336.434 21.9112C336.728 22.1278 336.952 22.4421 337.107 22.8542C337.265 23.2646 337.343 23.7606 337.343 24.3421C337.343 24.9271 337.266 25.4266 337.11 25.8405C336.955 26.2526 336.73 26.5678 336.437 26.7861C336.144 27.0026 335.791 27.1109 335.379 27.1109ZM335.379 26.4115C335.742 26.4115 336.026 26.2343 336.23 25.8798C336.436 25.5253 336.539 25.0127 336.539 24.3421C336.539 23.8968 336.492 23.5205 336.398 23.2131C336.305 22.904 336.171 22.67 335.997 22.5111C335.824 22.3504 335.618 22.2701 335.379 22.2701C335.017 22.2701 334.733 22.4482 334.527 22.8045C334.321 23.1607 334.217 23.6733 334.216 24.3421C334.216 24.7892 334.262 25.1673 334.354 25.4764C334.449 25.7837 334.582 26.0168 334.755 26.1758C334.928 26.3329 335.136 26.4115 335.379 26.4115ZM340.043 27.0952C339.715 27.0952 339.42 27.0323 339.158 26.9066C338.898 26.7791 338.69 26.6045 338.534 26.3827C338.379 26.1609 338.296 25.9077 338.286 25.623H339.071C339.091 25.8536 339.193 26.043 339.378 26.1915C339.563 26.3399 339.785 26.4141 340.043 26.4141C340.249 26.4141 340.432 26.367 340.591 26.2727C340.751 26.1766 340.877 26.0448 340.968 25.8771C341.061 25.7095 341.107 25.5183 341.107 25.3035C341.107 25.0852 341.06 24.8905 340.965 24.7193C340.871 24.5482 340.741 24.4137 340.575 24.3159C340.411 24.2181 340.222 24.1684 340.009 24.1666C339.847 24.1666 339.684 24.1946 339.519 24.2504C339.355 24.3063 339.223 24.3797 339.121 24.4705L338.38 24.3605L338.681 21.6571H341.631V22.3513H339.354L339.184 23.8523H339.216C339.32 23.751 339.459 23.6663 339.632 23.5982C339.807 23.5301 339.994 23.496 340.193 23.496C340.519 23.496 340.81 23.5737 341.065 23.7292C341.322 23.8846 341.523 24.0968 341.67 24.3657C341.818 24.6329 341.892 24.9402 341.89 25.2878C341.892 25.6353 341.813 25.9452 341.654 26.2177C341.497 26.4901 341.279 26.7049 340.999 26.8621C340.722 27.0175 340.403 27.0952 340.043 27.0952Z" fill="#333333"/>
<rect x="328.78" y="14.7529" width="82.1949" height="68.4958" stroke="#E0E0E0" stroke-width="0.526891"/>
<path d="M417.574 27.1109C417.16 27.1092 416.806 27 416.513 26.7835C416.219 26.5669 415.995 26.2517 415.839 25.8378C415.684 25.424 415.606 24.9254 415.606 24.3421C415.606 23.7606 415.684 23.2638 415.839 22.8516C415.997 22.4395 416.222 22.1252 416.515 21.9086C416.81 21.6921 417.163 21.5838 417.574 21.5838C417.984 21.5838 418.336 21.6929 418.629 21.9112C418.923 22.1278 419.147 22.4421 419.302 22.8542C419.46 23.2646 419.538 23.7606 419.538 24.3421C419.538 24.9271 419.46 25.4266 419.305 25.8405C419.15 26.2526 418.925 26.5678 418.632 26.7861C418.338 27.0026 417.986 27.1109 417.574 27.1109ZM417.574 26.4115C417.937 26.4115 418.221 26.2343 418.425 25.8798C418.631 25.5253 418.734 25.0127 418.734 24.3421C418.734 23.8968 418.687 23.5205 418.593 23.2131C418.5 22.904 418.366 22.67 418.192 22.5111C418.019 22.3504 417.813 22.2701 417.574 22.2701C417.212 22.2701 416.928 22.4482 416.722 22.8045C416.516 23.1607 416.412 23.6733 416.411 24.3421C416.411 24.7892 416.457 25.1673 416.549 25.4764C416.644 25.7837 416.777 26.0168 416.95 26.1758C417.123 26.3329 417.331 26.4115 417.574 26.4115ZM422.34 27.0952C422.101 27.0917 421.865 27.048 421.633 26.9642C421.403 26.8804 421.193 26.7407 421.004 26.5451C420.816 26.3495 420.665 26.0867 420.551 25.7566C420.44 25.4266 420.384 25.0145 420.384 24.5202C420.384 24.0522 420.43 23.6366 420.522 23.2734C420.617 22.9101 420.752 22.6037 420.928 22.3539C421.105 22.1025 421.318 21.9112 421.568 21.7803C421.817 21.6493 422.098 21.5838 422.408 21.5838C422.728 21.5838 423.012 21.6467 423.26 21.7724C423.508 21.8981 423.709 22.0719 423.862 22.2937C424.018 22.5155 424.116 22.7678 424.158 23.0507H423.359C423.305 22.8272 423.198 22.6447 423.037 22.5032C422.877 22.3618 422.667 22.2911 422.408 22.2911C422.016 22.2911 421.709 22.4622 421.489 22.8045C421.271 23.1468 421.161 23.6226 421.159 24.2321H421.198C421.291 24.0802 421.404 23.9509 421.539 23.8444C421.675 23.7361 421.827 23.6532 421.995 23.5956C422.164 23.5362 422.342 23.5065 422.529 23.5065C422.84 23.5065 423.121 23.5825 423.372 23.7344C423.626 23.8846 423.827 24.0924 423.978 24.3578C424.128 24.6233 424.203 24.9271 424.203 25.2694C424.203 25.6117 424.125 25.9217 423.97 26.1993C423.816 26.477 423.599 26.697 423.32 26.8594C423.041 27.0201 422.714 27.0987 422.34 27.0952ZM422.338 26.4141C422.544 26.4141 422.728 26.3635 422.89 26.2622C423.053 26.1609 423.181 26.0247 423.276 25.8536C423.37 25.6824 423.417 25.4912 423.417 25.2799C423.417 25.0738 423.371 24.8861 423.278 24.7167C423.187 24.5473 423.062 24.4128 422.901 24.3133C422.742 24.2138 422.56 24.164 422.356 24.164C422.201 24.164 422.057 24.1937 421.924 24.2531C421.793 24.3124 421.678 24.3945 421.578 24.4993C421.479 24.6041 421.4 24.7246 421.342 24.8608C421.286 24.9952 421.259 25.1376 421.259 25.2878C421.259 25.4886 421.305 25.6746 421.397 25.8457C421.492 26.0168 421.62 26.1548 421.782 26.2596C421.947 26.3626 422.132 26.4141 422.338 26.4141Z" fill="#333333"/>
<rect x="410.975" y="14.7529" width="82.1949" height="68.4958" stroke="#E0E0E0" stroke-width="0.526891"/>
<path d="M499.769 27.1109C499.355 27.1092 499.001 27 498.708 26.7835C498.414 26.5669 498.19 26.2517 498.034 25.8378C497.879 25.424 497.801 24.9254 497.801 24.3421C497.801 23.7606 497.879 23.2638 498.034 22.8516C498.192 22.4395 498.417 22.1252 498.71 21.9086C499.005 21.6921 499.358 21.5838 499.769 21.5838C500.179 21.5838 500.531 21.6929 500.824 21.9112C501.118 22.1278 501.342 22.4421 501.497 22.8542C501.655 23.2646 501.733 23.7606 501.733 24.3421C501.733 24.9271 501.655 25.4266 501.5 25.8405C501.345 26.2526 501.12 26.5678 500.827 26.7861C500.533 27.0026 500.181 27.1109 499.769 27.1109ZM499.769 26.4115C500.132 26.4115 500.416 26.2343 500.62 25.8798C500.826 25.5253 500.929 25.0127 500.929 24.3421C500.929 23.8968 500.882 23.5205 500.788 23.2131C500.695 22.904 500.561 22.67 500.387 22.5111C500.214 22.3504 500.008 22.2701 499.769 22.2701C499.407 22.2701 499.123 22.4482 498.917 22.8045C498.711 23.1607 498.607 23.6733 498.605 24.3421C498.605 24.7892 498.652 25.1673 498.744 25.4764C498.839 25.7837 498.972 26.0168 499.145 26.1758C499.318 26.3329 499.526 26.4115 499.769 26.4115ZM502.699 27.0219L505.041 22.3906V22.3513H502.332V21.6571H505.879V22.3749L503.545 27.0219H502.699Z" fill="#333333"/>
<rect x="493.17" y="14.7529" width="82.1949" height="68.4958" stroke="#E0E0E0" stroke-width="0.526891"/>
<path d="M6.59888 95.6067C6.185 95.605 5.83137 95.4958 5.53799 95.2793C5.24461 95.0627 5.0202 94.7475 4.86478 94.3336C4.70936 93.9198 4.63165 93.4212 4.63165 92.8379C4.63165 92.2564 4.70936 91.7596 4.86478 91.3474C5.02195 90.9353 5.24723 90.6209 5.54061 90.4044C5.83574 90.1879 6.18849 90.0796 6.59888 90.0796C7.00927 90.0796 7.36115 90.1887 7.65453 90.407C7.94792 90.6236 8.17232 90.9379 8.32774 91.35C8.48491 91.7604 8.56349 92.2564 8.56349 92.8379C8.56349 93.4229 8.48578 93.9224 8.33036 94.3363C8.17494 94.7484 7.95053 95.0636 7.65715 95.2819C7.36377 95.4984 7.01101 95.6067 6.59888 95.6067ZM6.59888 94.9073C6.96212 94.9073 7.24589 94.73 7.45021 94.3755C7.65628 94.021 7.75931 93.5085 7.75931 92.8379C7.75931 92.3926 7.71216 92.0163 7.61786 91.7089C7.5253 91.3998 7.39171 91.1658 7.21708 91.0069C7.04419 90.8462 6.83813 90.7659 6.59888 90.7659C6.23739 90.7659 5.95361 90.944 5.74755 91.3003C5.54148 91.6565 5.43758 92.1691 5.43583 92.8379C5.43583 93.285 5.48211 93.663 5.57466 93.9721C5.66896 94.2795 5.80256 94.5126 5.97544 94.6715C6.14833 94.8287 6.35614 94.9073 6.59888 94.9073ZM11.3054 95.591C10.93 95.591 10.5982 95.5264 10.31 95.3971C10.0236 95.2679 9.79924 95.0898 9.63683 94.8628C9.47442 94.6357 9.39409 94.3773 9.39584 94.0874C9.39409 93.8604 9.44037 93.6517 9.53467 93.4613C9.63072 93.2692 9.76082 93.1095 9.92497 92.982C10.0891 92.8527 10.2725 92.7707 10.4751 92.7357V92.7043C10.2079 92.6397 9.99395 92.4965 9.83329 92.2747C9.67263 92.0529 9.59317 91.798 9.59492 91.5098C9.59317 91.2357 9.66564 90.9912 9.81233 90.7764C9.96077 90.5598 10.1642 90.3896 10.4227 90.2656C10.6811 90.1416 10.9754 90.0796 11.3054 90.0796C11.632 90.0796 11.9236 90.1425 12.1803 90.2682C12.4388 90.3922 12.6423 90.5624 12.7907 90.779C12.9391 90.9938 13.0142 91.2374 13.016 91.5098C13.0142 91.798 12.9321 92.0529 12.7697 92.2747C12.6073 92.4965 12.396 92.6397 12.1358 92.7043V92.7357C12.3366 92.7707 12.5174 92.8527 12.678 92.982C12.8405 93.1095 12.9697 93.2692 13.0657 93.4613C13.1635 93.6517 13.2133 93.8604 13.215 94.0874C13.2133 94.3773 13.1312 94.6357 12.9688 94.8628C12.8064 95.0898 12.5811 95.2679 12.293 95.3971C12.0066 95.5264 11.6774 95.591 11.3054 95.591ZM11.3054 94.9283C11.5272 94.9283 11.7193 94.8916 11.8817 94.8182C12.0441 94.7431 12.1699 94.6392 12.2589 94.5065C12.348 94.3721 12.3934 94.2149 12.3951 94.035C12.3934 93.8482 12.3445 93.6831 12.2485 93.5399C12.1542 93.3967 12.0258 93.2841 11.8634 93.202C11.701 93.1199 11.515 93.0789 11.3054 93.0789C11.0941 93.0789 10.9064 93.1199 10.7423 93.202C10.5781 93.2841 10.4489 93.3967 10.3546 93.5399C10.2603 93.6831 10.214 93.8482 10.2157 94.035C10.214 94.2149 10.2568 94.3721 10.3441 94.5065C10.4332 94.6392 10.5598 94.7431 10.7239 94.8182C10.8881 94.8916 11.0819 94.9283 11.3054 94.9283ZM11.3054 92.4319C11.4836 92.4319 11.6416 92.3961 11.7796 92.3245C11.9175 92.2529 12.0258 92.1533 12.1044 92.0259C12.1847 91.8984 12.2258 91.7491 12.2275 91.5779C12.2258 91.4103 12.1856 91.2636 12.107 91.1379C12.0302 91.0121 11.9228 90.9152 11.7848 90.8471C11.6468 90.7772 11.4871 90.7423 11.3054 90.7423C11.1203 90.7423 10.9579 90.7772 10.8182 90.8471C10.6803 90.9152 10.5729 91.0121 10.496 91.1379C10.4192 91.2636 10.3816 91.4103 10.3834 91.5779C10.3816 91.7491 10.4201 91.8984 10.4986 92.0259C10.5772 92.1533 10.6855 92.2529 10.8235 92.3245C10.9632 92.3961 11.1238 92.4319 11.3054 92.4319Z" fill="#333333"/>
<rect y="83.2487" width="82.1949" height="68.4958" stroke="#E0E0E0" stroke-width="0.526891"/>
<path d="M88.7938 95.6067C88.3799 95.605 88.0263 95.4958 87.7329 95.2793C87.4396 95.0627 87.2152 94.7475 87.0597 94.3336C86.9043 93.9198 86.8266 93.4212 86.8266 92.8379C86.8266 92.2564 86.9043 91.7596 87.0597 91.3474C87.2169 90.9353 87.4422 90.6209 87.7356 90.4044C88.0307 90.1879 88.3834 90.0796 88.7938 90.0796C89.2042 90.0796 89.5561 90.1887 89.8495 90.407C90.1429 90.6236 90.3673 90.9379 90.5227 91.35C90.6799 91.7604 90.7584 92.2564 90.7584 92.8379C90.7584 93.4229 90.6807 93.9224 90.5253 94.3363C90.3699 94.7484 90.1455 95.0636 89.8521 95.2819C89.5587 95.4984 89.206 95.6067 88.7938 95.6067ZM88.7938 94.9073C89.1571 94.9073 89.4408 94.73 89.6452 94.3755C89.8512 94.021 89.9543 93.5085 89.9543 92.8379C89.9543 92.3926 89.9071 92.0163 89.8128 91.7089C89.7203 91.3998 89.5867 91.1658 89.412 91.0069C89.2391 90.8462 89.0331 90.7659 88.7938 90.7659C88.4323 90.7659 88.1486 90.944 87.9425 91.3003C87.7364 91.6565 87.6325 92.1691 87.6308 92.8379C87.6308 93.285 87.6771 93.663 87.7696 93.9721C87.8639 94.2795 87.9975 94.5126 88.1704 94.6715C88.3433 94.8287 88.5511 94.9073 88.7938 94.9073ZM93.4716 90.0796C93.7108 90.0813 93.9466 90.125 94.1788 90.2106C94.4111 90.2961 94.6207 90.4358 94.8075 90.6297C94.9961 90.8235 95.1463 91.0855 95.2581 91.4155C95.3716 91.7438 95.4292 92.1525 95.4309 92.6414C95.4309 93.1112 95.3838 93.5295 95.2895 93.8962C95.1952 94.2612 95.0599 94.5694 94.8835 94.8209C94.7088 95.0723 94.4967 95.2635 94.2469 95.3945C93.9972 95.5255 93.7161 95.591 93.4035 95.591C93.0839 95.591 92.8001 95.5281 92.5521 95.4024C92.3042 95.2766 92.1025 95.1029 91.947 94.8811C91.7916 94.6576 91.6947 94.4009 91.6563 94.111H92.4552C92.5076 94.3415 92.6141 94.5283 92.7748 94.6715C92.9372 94.813 93.1468 94.8837 93.4035 94.8837C93.7964 94.8837 94.1029 94.7126 94.3229 94.3703C94.5429 94.0263 94.6538 93.546 94.6556 92.9296H94.6137C94.5229 93.0798 94.4093 93.209 94.2731 93.3173C94.1387 93.4255 93.9876 93.5094 93.82 93.5687C93.6523 93.6281 93.4733 93.6578 93.283 93.6578C92.9739 93.6578 92.6927 93.5818 92.4395 93.4299C92.1863 93.278 91.9846 93.0693 91.8344 92.8039C91.6842 92.5384 91.6091 92.2354 91.6091 91.8949C91.6091 91.5561 91.686 91.2488 91.8396 90.9728C91.9951 90.6969 92.2116 90.4786 92.4893 90.318C92.7687 90.1556 93.0961 90.0761 93.4716 90.0796ZM93.4742 90.7607C93.2699 90.7607 93.0856 90.8113 92.9215 90.9126C92.7591 91.0121 92.6307 91.1475 92.5364 91.3186C92.4421 91.488 92.395 91.6766 92.395 91.8844C92.395 92.0922 92.4404 92.2808 92.5312 92.4502C92.6237 92.6179 92.7495 92.7515 92.9084 92.851C93.069 92.9488 93.2524 92.9977 93.4585 92.9977C93.6122 92.9977 93.7553 92.968 93.8881 92.9086C94.0208 92.8493 94.1369 92.7672 94.2365 92.6624C94.336 92.5559 94.4137 92.4354 94.4696 92.3009C94.5255 92.1664 94.5534 92.025 94.5534 91.8766C94.5534 91.6792 94.5063 91.4959 94.412 91.3265C94.3194 91.1571 94.1919 91.0209 94.0295 90.9178C93.8671 90.813 93.682 90.7607 93.4742 90.7607Z" fill="#333333"/>
<rect x="82.1949" y="83.2487" width="82.1949" height="68.4958" stroke="#E0E0E0" stroke-width="0.526891"/>
<path d="M171.156 90.1529V95.5176H170.344V90.965H170.313L169.029 91.8032V91.0278L170.368 90.1529H171.156ZM174.475 95.6067C174.061 95.605 173.708 95.4958 173.414 95.2793C173.121 95.0627 172.897 94.7475 172.741 94.3336C172.586 93.9198 172.508 93.4212 172.508 92.8379C172.508 92.2564 172.586 91.7596 172.741 91.3474C172.898 90.9353 173.124 90.6209 173.417 90.4044C173.712 90.1879 174.065 90.0796 174.475 90.0796C174.886 90.0796 175.238 90.1887 175.531 90.407C175.824 90.6236 176.049 90.9379 176.204 91.35C176.361 91.7604 176.44 92.2564 176.44 92.8379C176.44 93.4229 176.362 93.9224 176.207 94.3363C176.051 94.7484 175.827 95.0636 175.534 95.2819C175.24 95.4984 174.887 95.6067 174.475 95.6067ZM174.475 94.9073C174.839 94.9073 175.122 94.73 175.327 94.3755C175.533 94.021 175.636 93.5085 175.636 92.8379C175.636 92.3926 175.589 92.0163 175.494 91.7089C175.402 91.3998 175.268 91.1658 175.094 91.0069C174.921 90.8462 174.715 90.7659 174.475 90.7659C174.114 90.7659 173.83 90.944 173.624 91.3003C173.418 91.6565 173.314 92.1691 173.312 92.8379C173.312 93.285 173.359 93.663 173.451 93.9721C173.545 94.2795 173.679 94.5126 173.852 94.6715C174.025 94.8287 174.233 94.9073 174.475 94.9073Z" fill="#333333"/>
<rect x="164.39" y="83.2487" width="82.1949" height="68.4958" stroke="#E0E0E0" stroke-width="0.526891"/>
<path d="M253.351 90.1529V95.5176H252.539V90.965H252.508L251.224 91.8032V91.0278L252.563 90.1529H253.351ZM256.838 90.1529V95.5176H256.026V90.965H255.994L254.711 91.8032V91.0278L256.049 90.1529H256.838Z" fill="#333333"/>
<rect x="246.585" y="83.2487" width="82.1949" height="68.4958" stroke="#E0E0E0" stroke-width="0.526891"/>
<path d="M335.546 90.1529V95.5176H334.734V90.965H334.703L333.419 91.8032V91.0278L334.758 90.1529H335.546ZM336.997 95.5176V94.9309L338.813 93.0501C339.007 92.8458 339.166 92.6668 339.292 92.5131C339.42 92.3577 339.515 92.2101 339.578 92.0704C339.641 91.9307 339.672 91.7823 339.672 91.6251C339.672 91.447 339.63 91.2933 339.546 91.1641C339.462 91.0331 339.348 90.9327 339.203 90.8628C339.058 90.7912 338.895 90.7554 338.713 90.7554C338.521 90.7554 338.353 90.7947 338.21 90.8733C338.067 90.9519 337.957 91.0628 337.88 91.206C337.803 91.3492 337.765 91.5168 337.765 91.7089H336.992C336.992 91.3823 337.067 91.0968 337.218 90.8523C337.368 90.6079 337.574 90.4184 337.836 90.2839C338.098 90.1477 338.395 90.0796 338.729 90.0796C339.066 90.0796 339.363 90.1468 339.62 90.2813C339.878 90.414 340.08 90.5956 340.225 90.8261C340.37 91.0549 340.442 91.3134 340.442 91.6015C340.442 91.8006 340.405 91.9953 340.329 92.1857C340.256 92.376 340.128 92.5882 339.944 92.8222C339.761 93.0545 339.506 93.3365 339.18 93.6683L338.113 94.7842V94.8235H340.529V95.5176H336.997Z" fill="#333333"/>
<rect x="328.78" y="83.2487" width="82.1949" height="68.4958" stroke="#E0E0E0" stroke-width="0.526891"/>
<path d="M417.741 90.1529V95.5176H416.929V90.965H416.898L415.614 91.8032V91.0278L416.953 90.1529H417.741ZM421.06 95.591C420.7 95.591 420.379 95.529 420.096 95.405C419.815 95.281 419.592 95.109 419.428 94.889C419.266 94.6672 419.178 94.4105 419.166 94.1188H419.989C419.999 94.2777 420.052 94.4157 420.149 94.5327C420.246 94.648 420.374 94.737 420.531 94.7999C420.688 94.8628 420.863 94.8942 421.055 94.8942C421.266 94.8942 421.453 94.8575 421.615 94.7842C421.78 94.7108 421.908 94.6087 422.001 94.4777C422.093 94.345 422.139 94.1922 422.139 94.0193C422.139 93.8394 422.093 93.6814 422.001 93.5452C421.91 93.4072 421.776 93.2989 421.6 93.2204C421.425 93.1418 421.214 93.1025 420.966 93.1025H420.513V92.4424H420.966C421.165 92.4424 421.34 92.4066 421.49 92.335C421.642 92.2634 421.76 92.1638 421.846 92.0363C421.932 91.9071 421.974 91.7561 421.974 91.5832C421.974 91.4173 421.937 91.2732 421.862 91.151C421.788 91.027 421.684 90.93 421.547 90.8602C421.413 90.7903 421.254 90.7554 421.071 90.7554C420.896 90.7554 420.733 90.7877 420.581 90.8523C420.431 90.9152 420.308 91.006 420.214 91.1248C420.12 91.2418 420.069 91.3823 420.062 91.5465H419.279C419.288 91.2566 419.373 91.0016 419.536 90.7816C419.7 90.5616 419.916 90.3896 420.185 90.2656C420.454 90.1416 420.753 90.0796 421.081 90.0796C421.425 90.0796 421.722 90.1468 421.972 90.2813C422.223 90.414 422.417 90.5913 422.553 90.813C422.691 91.0348 422.759 91.2776 422.758 91.5413C422.759 91.8416 422.675 92.0966 422.506 92.3062C422.338 92.5157 422.115 92.6563 421.835 92.7279V92.7698C422.192 92.8239 422.468 92.9654 422.663 93.1942C422.861 93.4229 422.958 93.7067 422.957 94.0455C422.958 94.3406 422.876 94.6052 422.71 94.8392C422.546 95.0732 422.322 95.2574 422.037 95.3919C421.753 95.5246 421.427 95.591 421.06 95.591Z" fill="#333333"/>
<rect x="410.975" y="83.2487" width="82.1949" height="68.4958" stroke="#E0E0E0" stroke-width="0.526891"/>
<path d="M499.936 90.1529V95.5176H499.124V90.965H499.093L497.809 91.8032V91.0278L499.148 90.1529H499.936ZM501.275 94.4698V93.815L503.593 90.1529H504.109V91.1169H503.782L502.123 93.7416V93.7835H505.301V94.4698H501.275ZM503.818 95.5176V94.2708L503.823 93.9721V90.1529H504.591V95.5176H503.818Z" fill="#333333"/>
<rect x="493.17" y="83.2487" width="82.1949" height="68.4958" stroke="#E0E0E0" stroke-width="0.526891"/>
<path d="M6.76653 158.649V164.013H5.95449V159.461H5.92305L4.63951 160.299V159.524L5.97806 158.649H6.76653ZM9.98849 164.087C9.66018 164.087 9.36506 164.024 9.10311 163.898C8.84291 163.771 8.63509 163.596 8.47967 163.374C8.32425 163.152 8.2413 162.899 8.23082 162.615H9.01666C9.03587 162.845 9.13803 163.035 9.32314 163.183C9.50825 163.331 9.73004 163.406 9.98849 163.406C10.1946 163.406 10.3771 163.359 10.536 163.264C10.6966 163.168 10.8224 163.036 10.9132 162.869C11.0057 162.701 11.052 162.51 11.052 162.295C11.052 162.077 11.0049 161.882 10.9106 161.711C10.8163 161.54 10.6861 161.405 10.5202 161.307C10.3561 161.21 10.1675 161.16 9.95444 161.158C9.79203 161.158 9.62875 161.186 9.4646 161.242C9.30044 161.298 9.16772 161.371 9.06643 161.462L8.32512 161.352L8.62636 158.649H11.5759V159.343H9.29957L9.1293 160.844H9.16074C9.26552 160.743 9.40435 160.658 9.57723 160.59C9.75187 160.522 9.93872 160.488 10.1378 160.488C10.4644 160.488 10.7551 160.565 11.0101 160.721C11.2668 160.876 11.4685 161.088 11.6152 161.357C11.7636 161.624 11.837 161.932 11.8352 162.279C11.837 162.627 11.7584 162.937 11.5995 163.209C11.4423 163.482 11.224 163.696 10.9446 163.854C10.6669 164.009 10.3482 164.087 9.98849 164.087Z" fill="#333333"/>
<rect y="151.745" width="82.1949" height="68.4958" stroke="#E0E0E0" stroke-width="0.526891"/>
<path d="M88.9615 158.649V164.013H88.1494V159.461H88.118L86.8345 160.299V159.524L88.173 158.649H88.9615ZM92.2856 164.087C92.0464 164.083 91.8106 164.04 91.5783 163.956C91.3478 163.872 91.1383 163.732 90.9497 163.537C90.7611 163.341 90.61 163.078 90.4965 162.748C90.3847 162.418 90.3288 162.006 90.3288 161.512C90.3288 161.044 90.3751 160.628 90.4677 160.265C90.562 159.902 90.6973 159.595 90.8737 159.346C91.0501 159.094 91.2631 158.903 91.5129 158.772C91.7626 158.641 92.0429 158.575 92.3537 158.575C92.6733 158.575 92.9571 158.638 93.205 158.764C93.453 158.89 93.6538 159.063 93.8075 159.285C93.9629 159.507 94.0616 159.759 94.1035 160.042H93.3046C93.2504 159.819 93.143 159.636 92.9824 159.495C92.8217 159.353 92.6122 159.283 92.3537 159.283C91.9608 159.283 91.6543 159.454 91.4343 159.796C91.216 160.138 91.106 160.614 91.1042 161.224H91.1435C91.2361 161.072 91.3496 160.943 91.484 160.836C91.6203 160.728 91.7722 160.645 91.9398 160.587C92.1092 160.528 92.2873 160.498 92.4742 160.498C92.785 160.498 93.0662 160.574 93.3177 160.726C93.5709 160.876 93.7726 161.084 93.9228 161.349C94.073 161.615 94.1481 161.919 94.1481 162.261C94.1481 162.603 94.0703 162.913 93.9149 163.191C93.7612 163.469 93.5447 163.689 93.2653 163.851C92.9859 164.012 92.6593 164.09 92.2856 164.087ZM92.283 163.406C92.489 163.406 92.6733 163.355 92.8357 163.254C92.9981 163.152 93.1265 163.016 93.2208 162.845C93.3151 162.674 93.3622 162.483 93.3622 162.271C93.3622 162.065 93.3159 161.878 93.2234 161.708C93.1326 161.539 93.0068 161.404 92.8462 161.305C92.6873 161.205 92.5056 161.156 92.3013 161.156C92.1459 161.156 92.0018 161.185 91.8691 161.245C91.7381 161.304 91.6229 161.386 91.5233 161.491C91.4238 161.596 91.3452 161.716 91.2876 161.852C91.2317 161.987 91.2038 162.129 91.2038 162.279C91.2038 162.48 91.25 162.666 91.3426 162.837C91.4369 163.008 91.5652 163.146 91.7276 163.251C91.8918 163.354 92.0769 163.406 92.283 163.406Z" fill="#333333"/>
<rect x="82.1949" y="151.745" width="82.1949" height="68.4958" stroke="#E0E0E0" stroke-width="0.526891"/>
<path d="M171.156 158.649V164.013H170.344V159.461H170.313L169.029 160.299V159.524L170.368 158.649H171.156ZM172.788 164.013L175.13 159.382V159.343H172.422V158.649H175.968V159.366L173.634 164.013H172.788Z" fill="#333333"/>
<rect x="164.39" y="151.745" width="82.1949" height="68.4958" stroke="#E0E0E0" stroke-width="0.526891"/>
<path d="M253.351 158.649V164.013H252.539V159.461H252.508L251.224 160.299V159.524L252.563 158.649H253.351ZM256.615 164.087C256.24 164.087 255.908 164.022 255.62 163.893C255.333 163.764 255.109 163.586 254.947 163.359C254.784 163.132 254.704 162.873 254.706 162.583C254.704 162.356 254.75 162.147 254.844 161.957C254.94 161.765 255.071 161.605 255.235 161.478C255.399 161.349 255.582 161.266 255.785 161.232V161.2C255.518 161.135 255.304 160.992 255.143 160.771C254.982 160.549 254.903 160.294 254.905 160.006C254.903 159.731 254.975 159.487 255.122 159.272C255.271 159.056 255.474 158.885 255.732 158.761C255.991 158.637 256.285 158.575 256.615 158.575C256.942 158.575 257.233 158.638 257.49 158.764C257.749 158.888 257.952 159.058 258.1 159.275C258.249 159.49 258.324 159.733 258.326 160.006C258.324 160.294 258.242 160.549 258.08 160.771C257.917 160.992 257.706 161.135 257.446 161.2V161.232C257.646 161.266 257.827 161.349 257.988 161.478C258.15 161.605 258.279 161.765 258.376 161.957C258.473 162.147 258.523 162.356 258.525 162.583C258.523 162.873 258.441 163.132 258.279 163.359C258.116 163.586 257.891 163.764 257.603 163.893C257.316 164.022 256.987 164.087 256.615 164.087ZM256.615 163.424C256.837 163.424 257.029 163.387 257.192 163.314C257.354 163.239 257.48 163.135 257.569 163.002C257.658 162.868 257.703 162.711 257.705 162.531C257.703 162.344 257.654 162.179 257.558 162.036C257.464 161.893 257.336 161.78 257.173 161.698C257.011 161.616 256.825 161.575 256.615 161.575C256.404 161.575 256.216 161.616 256.052 161.698C255.888 161.78 255.759 161.893 255.664 162.036C255.57 162.179 255.524 162.344 255.526 162.531C255.524 162.711 255.567 162.868 255.654 163.002C255.743 163.135 255.87 163.239 256.034 163.314C256.198 163.387 256.392 163.424 256.615 163.424ZM256.615 160.928C256.793 160.928 256.951 160.892 257.089 160.82C257.227 160.749 257.336 160.649 257.414 160.522C257.494 160.394 257.536 160.245 257.537 160.074C257.536 159.906 257.495 159.759 257.417 159.634C257.34 159.508 257.233 159.411 257.095 159.343C256.957 159.273 256.797 159.238 256.615 159.238C256.43 159.238 256.268 159.273 256.128 159.343C255.99 159.411 255.883 159.508 255.806 159.634C255.729 159.759 255.691 159.906 255.693 160.074C255.691 160.245 255.73 160.394 255.808 160.522C255.887 160.649 255.995 160.749 256.133 160.82C256.273 160.892 256.434 160.928 256.615 160.928Z" fill="#333333"/>
<rect x="246.585" y="151.745" width="82.1949" height="68.4958" stroke="#E0E0E0" stroke-width="0.526891"/>
<path d="M335.546 158.649V164.013H334.734V159.461H334.703L333.419 160.299V159.524L334.758 158.649H335.546ZM338.781 158.575C339.021 158.577 339.256 158.621 339.489 158.706C339.721 158.792 339.93 158.932 340.117 159.125C340.306 159.319 340.456 159.581 340.568 159.911C340.681 160.24 340.739 160.648 340.741 161.137C340.741 161.607 340.694 162.025 340.599 162.392C340.505 162.757 340.37 163.065 340.193 163.317C340.019 163.568 339.806 163.759 339.557 163.89C339.307 164.021 339.026 164.087 338.713 164.087C338.394 164.087 338.11 164.024 337.862 163.898C337.614 163.772 337.412 163.599 337.257 163.377C337.101 163.153 337.004 162.897 336.966 162.607H337.765C337.817 162.837 337.924 163.024 338.085 163.167C338.247 163.309 338.457 163.38 338.713 163.38C339.106 163.38 339.413 163.208 339.633 162.866C339.853 162.522 339.964 162.042 339.965 161.425H339.923C339.833 161.576 339.719 161.705 339.583 161.813C339.448 161.921 339.297 162.005 339.13 162.065C338.962 162.124 338.783 162.154 338.593 162.154C338.284 162.154 338.002 162.078 337.749 161.926C337.496 161.774 337.294 161.565 337.144 161.3C336.994 161.034 336.919 160.731 336.919 160.391C336.919 160.052 336.996 159.745 337.149 159.469C337.305 159.193 337.521 158.974 337.799 158.814C338.078 158.651 338.406 158.572 338.781 158.575ZM338.784 159.256C338.58 159.256 338.395 159.307 338.231 159.408C338.069 159.508 337.94 159.643 337.846 159.814C337.752 159.984 337.705 160.172 337.705 160.38C337.705 160.588 337.75 160.777 337.841 160.946C337.934 161.114 338.059 161.247 338.218 161.347C338.379 161.445 338.562 161.493 338.768 161.493C338.922 161.493 339.065 161.464 339.198 161.404C339.331 161.345 339.447 161.263 339.546 161.158C339.646 161.052 339.723 160.931 339.779 160.797C339.835 160.662 339.863 160.521 339.863 160.372C339.863 160.175 339.816 159.992 339.722 159.822C339.629 159.653 339.502 159.517 339.339 159.414C339.177 159.309 338.992 159.256 338.784 159.256Z" fill="#333333"/>
<rect x="328.78" y="151.745" width="82.1949" height="68.4958" stroke="#E0E0E0" stroke-width="0.526891"/>
<path d="M415.706 164.013V163.427L417.521 161.546C417.715 161.342 417.875 161.163 418.001 161.009C418.128 160.853 418.223 160.706 418.286 160.566C418.349 160.426 418.38 160.278 418.38 160.121C418.38 159.943 418.338 159.789 418.255 159.66C418.171 159.529 418.056 159.428 417.911 159.359C417.767 159.287 417.603 159.251 417.422 159.251C417.23 159.251 417.062 159.29 416.919 159.369C416.776 159.448 416.665 159.559 416.589 159.702C416.512 159.845 416.473 160.013 416.473 160.205H415.701C415.701 159.878 415.776 159.593 415.926 159.348C416.076 159.104 416.282 158.914 416.544 158.78C416.806 158.643 417.104 158.575 417.437 158.575C417.774 158.575 418.071 158.643 418.328 158.777C418.586 158.91 418.788 159.091 418.933 159.322C419.078 159.551 419.151 159.809 419.151 160.097C419.151 160.296 419.113 160.491 419.038 160.681C418.965 160.872 418.836 161.084 418.653 161.318C418.469 161.55 418.214 161.832 417.888 162.164L416.822 163.28V163.319H419.237V164.013H415.706ZM422.097 164.102C421.684 164.101 421.33 163.992 421.037 163.775C420.743 163.559 420.519 163.243 420.363 162.829C420.208 162.416 420.13 161.917 420.13 161.334C420.13 160.752 420.208 160.255 420.363 159.843C420.521 159.431 420.746 159.117 421.039 158.9C421.334 158.684 421.687 158.575 422.097 158.575C422.508 158.575 422.86 158.685 423.153 158.903C423.446 159.119 423.671 159.434 423.826 159.846C423.983 160.256 424.062 160.752 424.062 161.334C424.062 161.919 423.984 162.418 423.829 162.832C423.673 163.244 423.449 163.559 423.156 163.778C422.862 163.994 422.51 164.102 422.097 164.102ZM422.097 163.403C422.461 163.403 422.744 163.226 422.949 162.871C423.155 162.517 423.258 162.004 423.258 161.334C423.258 160.888 423.211 160.512 423.116 160.205C423.024 159.896 422.89 159.662 422.716 159.503C422.543 159.342 422.337 159.262 422.097 159.262C421.736 159.262 421.452 159.44 421.246 159.796C421.04 160.152 420.936 160.665 420.934 161.334C420.934 161.781 420.981 162.159 421.073 162.468C421.168 162.775 421.301 163.008 421.474 163.167C421.647 163.325 421.855 163.403 422.097 163.403Z" fill="#333333"/>
<rect x="410.975" y="151.745" width="82.1949" height="68.4958" stroke="#E0E0E0" stroke-width="0.526891"/>
<path d="M497.901 164.013V163.427L499.716 161.546C499.91 161.342 500.07 161.163 500.196 161.009C500.323 160.853 500.418 160.706 500.481 160.566C500.544 160.426 500.575 160.278 500.575 160.121C500.575 159.943 500.533 159.789 500.45 159.66C500.366 159.529 500.251 159.428 500.106 159.359C499.961 159.287 499.798 159.251 499.617 159.251C499.425 159.251 499.257 159.29 499.114 159.369C498.97 159.448 498.86 159.559 498.784 159.702C498.707 159.845 498.668 160.013 498.668 160.205H497.896C497.896 159.878 497.971 159.593 498.121 159.348C498.271 159.104 498.477 158.914 498.739 158.78C499.001 158.643 499.299 158.575 499.632 158.575C499.969 158.575 500.266 158.643 500.523 158.777C500.781 158.91 500.983 159.091 501.128 159.322C501.273 159.551 501.345 159.809 501.345 160.097C501.345 160.296 501.308 160.491 501.233 160.681C501.159 160.872 501.031 161.084 500.848 161.318C500.664 161.55 500.409 161.832 500.083 162.164L499.017 163.28V163.319H501.432V164.013H497.901ZM504.46 158.649V164.013H503.648V159.461H503.617L502.333 160.299V159.524L503.672 158.649H504.46Z" fill="#333333"/>
<rect x="493.17" y="151.745" width="82.1949" height="68.4958" stroke="#E0E0E0" stroke-width="0.526891"/>
<path d="M4.73119 232.509V231.922L6.54649 230.042C6.74033 229.837 6.90012 229.658 7.02586 229.505C7.15334 229.349 7.24851 229.202 7.31138 229.062C7.37425 228.922 7.40568 228.774 7.40568 228.617C7.40568 228.439 7.36377 228.285 7.27995 228.156C7.19612 228.025 7.08174 227.924 6.93679 227.854C6.79185 227.783 6.62857 227.747 6.44695 227.747C6.25485 227.747 6.08721 227.786 5.94401 227.865C5.80081 227.943 5.69079 228.054 5.61395 228.198C5.53712 228.341 5.4987 228.508 5.4987 228.7H4.72595C4.72595 228.374 4.80104 228.088 4.95122 227.844C5.10141 227.599 5.30747 227.41 5.56942 227.275C5.83137 227.139 6.12912 227.071 6.46267 227.071C6.79971 227.071 7.09658 227.138 7.35329 227.273C7.61175 227.406 7.81345 227.587 7.95839 227.818C8.10334 228.046 8.17581 228.305 8.17581 228.593C8.17581 228.792 8.13826 228.987 8.06317 229.177C7.98983 229.368 7.86147 229.58 7.67811 229.814C7.49474 230.046 7.23978 230.328 6.91322 230.66L5.84709 231.776V231.815H8.26225V232.509H4.73119ZM9.25504 232.509V231.922L11.0703 230.042C11.2642 229.837 11.424 229.658 11.5497 229.505C11.6772 229.349 11.7724 229.202 11.8352 229.062C11.8981 228.922 11.9295 228.774 11.9295 228.617C11.9295 228.439 11.8876 228.285 11.8038 228.156C11.72 228.025 11.6056 227.924 11.4606 227.854C11.3157 227.783 11.1524 227.747 10.9708 227.747C10.7787 227.747 10.6111 227.786 10.4679 227.865C10.3247 227.943 10.2146 228.054 10.1378 228.198C10.061 228.341 10.0225 228.508 10.0225 228.7H9.2498C9.2498 228.374 9.32489 228.088 9.47507 227.844C9.62526 227.599 9.83132 227.41 10.0933 227.275C10.3552 227.139 10.653 227.071 10.9865 227.071C11.3236 227.071 11.6204 227.138 11.8771 227.273C12.1356 227.406 12.3373 227.587 12.4822 227.818C12.6272 228.046 12.6997 228.305 12.6997 228.593C12.6997 228.792 12.6621 228.987 12.587 229.177C12.5137 229.368 12.3853 229.58 12.202 229.814C12.0186 230.046 11.7636 230.328 11.4371 230.66L10.3709 231.776V231.815H12.7861V232.509H9.25504Z" fill="#333333"/>
<rect y="220.24" width="82.1949" height="68.4958" stroke="#E0E0E0" stroke-width="0.526891"/>
<path d="M86.9261 232.509V231.922L88.7414 230.042C88.9353 229.837 89.0951 229.658 89.2208 229.505C89.3483 229.349 89.4435 229.202 89.5063 229.062C89.5692 228.922 89.6006 228.774 89.6006 228.617C89.6006 228.439 89.5587 228.285 89.4749 228.156C89.3911 228.025 89.2767 227.924 89.1317 227.854C88.9868 227.783 88.8235 227.747 88.6419 227.747C88.4498 227.747 88.2822 227.786 88.139 227.865C87.9958 227.943 87.8857 228.054 87.8089 228.198C87.7321 228.341 87.6936 228.508 87.6936 228.7H86.9209C86.9209 228.374 86.996 228.088 87.1462 227.844C87.2964 227.599 87.5024 227.41 87.7644 227.275C88.0263 227.139 88.3241 227.071 88.6576 227.071C88.9947 227.071 89.2915 227.138 89.5482 227.273C89.8067 227.406 90.0084 227.587 90.1533 227.818C90.2983 228.046 90.3708 228.305 90.3708 228.593C90.3708 228.792 90.3332 228.987 90.2581 229.177C90.1848 229.368 90.0564 229.58 89.8731 229.814C89.6897 230.046 89.4347 230.328 89.1082 230.66L88.042 231.776V231.815H90.4572V232.509H86.9261ZM93.3177 232.583C92.9579 232.583 92.6366 232.521 92.3537 232.397C92.0725 232.273 91.8499 232.101 91.6857 231.881C91.5233 231.659 91.436 231.402 91.4238 231.11H92.2463C92.2568 231.269 92.31 231.407 92.4061 231.524C92.5039 231.64 92.6314 231.729 92.7885 231.791C92.9457 231.854 93.1203 231.886 93.3124 231.886C93.5237 231.886 93.7106 231.849 93.873 231.776C94.0372 231.702 94.1655 231.6 94.2581 231.469C94.3506 231.337 94.3969 231.184 94.3969 231.011C94.3969 230.831 94.3506 230.673 94.2581 230.537C94.1673 230.399 94.0337 230.291 93.8573 230.212C93.6827 230.133 93.4714 230.094 93.2234 230.094H92.7702V229.434H93.2234C93.4225 229.434 93.5971 229.398 93.7473 229.327C93.8992 229.255 94.018 229.155 94.1035 229.028C94.1891 228.899 94.2319 228.748 94.2319 228.575C94.2319 228.409 94.1943 228.265 94.1192 228.143C94.0459 228.019 93.9411 227.922 93.8049 227.852C93.6704 227.782 93.5115 227.747 93.3282 227.747C93.1535 227.747 92.9902 227.779 92.8383 227.844C92.6881 227.907 92.5659 227.998 92.4716 228.116C92.3773 228.233 92.3266 228.374 92.3197 228.538H91.5364C91.5452 228.248 91.6307 227.993 91.7931 227.773C91.9573 227.553 92.1738 227.381 92.4428 227.257C92.7117 227.133 93.0103 227.071 93.3386 227.071C93.6827 227.071 93.9795 227.138 94.2293 227.273C94.4807 227.406 94.6746 227.583 94.8108 227.805C94.9487 228.026 95.0168 228.269 95.0151 228.533C95.0168 228.833 94.933 229.088 94.7636 229.298C94.596 229.507 94.3725 229.648 94.093 229.719V229.761C94.4493 229.816 94.7252 229.957 94.9208 230.186C95.1181 230.415 95.2159 230.698 95.2142 231.037C95.2159 231.332 95.1339 231.597 94.968 231.831C94.8038 232.065 94.5794 232.249 94.2947 232.383C94.0101 232.516 93.6844 232.583 93.3177 232.583Z" fill="#333333"/>
<rect x="82.1949" y="220.24" width="82.1949" height="68.4958" stroke="#E0E0E0" stroke-width="0.526891"/>
<path d="M169.121 232.509V231.922L170.936 230.042C171.13 229.837 171.29 229.658 171.416 229.505C171.543 229.349 171.638 229.202 171.701 229.062C171.764 228.922 171.796 228.774 171.796 228.617C171.796 228.439 171.754 228.285 171.67 228.156C171.586 228.025 171.472 227.924 171.327 227.854C171.182 227.783 171.018 227.747 170.837 227.747C170.645 227.747 170.477 227.786 170.334 227.865C170.191 227.943 170.081 228.054 170.004 228.198C169.927 228.341 169.889 228.508 169.889 228.7H169.116C169.116 228.374 169.191 228.088 169.341 227.844C169.491 227.599 169.697 227.41 169.959 227.275C170.221 227.139 170.519 227.071 170.853 227.071C171.19 227.071 171.486 227.138 171.743 227.273C172.002 227.406 172.203 227.587 172.348 227.818C172.493 228.046 172.566 228.305 172.566 228.593C172.566 228.792 172.528 228.987 172.453 229.177C172.38 229.368 172.251 229.58 172.068 229.814C171.885 230.046 171.63 230.328 171.303 230.66L170.237 231.776V231.815H172.652V232.509H169.121ZM173.417 231.461V230.807L175.735 227.145H176.251V228.108H175.924L174.266 230.733V230.775H177.443V231.461H173.417ZM175.961 232.509V231.262L175.966 230.964V227.145H176.733V232.509H175.961Z" fill="#333333"/>
<rect x="164.39" y="220.24" width="82.1949" height="68.4958" stroke="#E0E0E0" stroke-width="0.526891"/>
<path d="M251.316 232.509V231.922L253.131 230.042C253.325 229.837 253.485 229.658 253.611 229.505C253.738 229.349 253.833 229.202 253.896 229.062C253.959 228.922 253.99 228.774 253.99 228.617C253.99 228.439 253.949 228.285 253.865 228.156C253.781 228.025 253.667 227.924 253.522 227.854C253.377 227.783 253.213 227.747 253.032 227.747C252.84 227.747 252.672 227.786 252.529 227.865C252.386 227.943 252.276 228.054 252.199 228.198C252.122 228.341 252.084 228.508 252.084 228.7H251.311C251.311 228.374 251.386 228.088 251.536 227.844C251.686 227.599 251.892 227.41 252.154 227.275C252.416 227.139 252.714 227.071 253.047 227.071C253.385 227.071 253.681 227.138 253.938 227.273C254.197 227.406 254.398 227.587 254.543 227.818C254.688 228.046 254.761 228.305 254.761 228.593C254.761 228.792 254.723 228.987 254.648 229.177C254.575 229.368 254.446 229.58 254.263 229.814C254.08 230.046 253.825 230.328 253.498 230.66L252.432 231.776V231.815H254.847V232.509H251.316ZM257.611 232.583C257.282 232.583 256.987 232.52 256.725 232.394C256.465 232.266 256.257 232.092 256.102 231.87C255.946 231.648 255.863 231.395 255.853 231.11H256.639C256.658 231.341 256.76 231.53 256.945 231.679C257.13 231.827 257.352 231.901 257.611 231.901C257.817 231.901 257.999 231.854 258.158 231.76C258.319 231.664 258.444 231.532 258.535 231.365C258.628 231.197 258.674 231.006 258.674 230.791C258.674 230.573 258.627 230.378 258.533 230.207C258.438 230.036 258.308 229.901 258.142 229.803C257.978 229.705 257.79 229.656 257.577 229.654C257.414 229.654 257.251 229.682 257.087 229.738C256.923 229.794 256.79 229.867 256.689 229.958L255.947 229.848L256.248 227.145H259.198V227.839H256.922L256.751 229.34H256.783C256.888 229.238 257.026 229.154 257.199 229.086C257.374 229.017 257.561 228.983 257.76 228.983C258.086 228.983 258.377 229.061 258.632 229.217C258.889 229.372 259.091 229.584 259.237 229.853C259.386 230.12 259.459 230.428 259.457 230.775C259.459 231.123 259.381 231.433 259.222 231.705C259.064 231.977 258.846 232.192 258.567 232.349C258.289 232.505 257.97 232.583 257.611 232.583Z" fill="#333333"/>
<rect x="246.585" y="220.24" width="82.1949" height="68.4958" stroke="#E0E0E0" stroke-width="0.526891"/>
<path d="M333.511 232.509V231.922L335.326 230.042C335.52 229.837 335.68 229.658 335.806 229.505C335.933 229.349 336.028 229.202 336.091 229.062C336.154 228.922 336.185 228.774 336.185 228.617C336.185 228.439 336.144 228.285 336.06 228.156C335.976 228.025 335.861 227.924 335.717 227.854C335.572 227.783 335.408 227.747 335.227 227.747C335.035 227.747 334.867 227.786 334.724 227.865C334.581 227.943 334.471 228.054 334.394 228.198C334.317 228.341 334.278 228.508 334.278 228.7H333.506C333.506 228.374 333.581 228.088 333.731 227.844C333.881 227.599 334.087 227.41 334.349 227.275C334.611 227.139 334.909 227.071 335.242 227.071C335.579 227.071 335.876 227.138 336.133 227.273C336.392 227.406 336.593 227.587 336.738 227.818C336.883 228.046 336.956 228.305 336.956 228.593C336.956 228.792 336.918 228.987 336.843 229.177C336.77 229.368 336.641 229.58 336.458 229.814C336.274 230.046 336.02 230.328 335.693 230.66L334.627 231.776V231.815H337.042V232.509H333.511ZM339.908 232.583C339.668 232.579 339.433 232.535 339.2 232.452C338.97 232.368 338.76 232.228 338.572 232.032C338.383 231.837 338.232 231.574 338.119 231.244C338.007 230.914 337.951 230.502 337.951 230.008C337.951 229.54 337.997 229.124 338.09 228.761C338.184 228.397 338.319 228.091 338.496 227.841C338.672 227.59 338.885 227.399 339.135 227.268C339.385 227.137 339.665 227.071 339.976 227.071C340.295 227.071 340.579 227.134 340.827 227.26C341.075 227.386 341.276 227.559 341.43 227.781C341.585 228.003 341.684 228.255 341.726 228.538H340.927C340.873 228.315 340.765 228.132 340.605 227.991C340.444 227.849 340.234 227.778 339.976 227.778C339.583 227.778 339.276 227.95 339.056 228.292C338.838 228.634 338.728 229.11 338.726 229.719H338.766C338.858 229.568 338.972 229.438 339.106 229.332C339.242 229.224 339.394 229.141 339.562 229.083C339.731 229.024 339.909 228.994 340.096 228.994C340.407 228.994 340.688 229.07 340.94 229.222C341.193 229.372 341.395 229.58 341.545 229.845C341.695 230.111 341.77 230.415 341.77 230.757C341.77 231.099 341.692 231.409 341.537 231.687C341.383 231.964 341.167 232.184 340.887 232.347C340.608 232.507 340.281 232.586 339.908 232.583ZM339.905 231.901C340.111 231.901 340.295 231.851 340.458 231.75C340.62 231.648 340.749 231.512 340.843 231.341C340.937 231.17 340.984 230.979 340.984 230.767C340.984 230.561 340.938 230.373 340.846 230.204C340.755 230.035 340.629 229.9 340.468 229.801C340.309 229.701 340.128 229.651 339.923 229.651C339.768 229.651 339.624 229.681 339.491 229.74C339.36 229.8 339.245 229.882 339.145 229.987C339.046 230.091 338.967 230.212 338.91 230.348C338.854 230.483 338.826 230.625 338.826 230.775C338.826 230.976 338.872 231.162 338.965 231.333C339.059 231.504 339.187 231.642 339.35 231.747C339.514 231.85 339.699 231.901 339.905 231.901Z" fill="#333333"/>
<rect x="328.78" y="220.24" width="82.1949" height="68.4958" stroke="#E0E0E0" stroke-width="0.526891"/>
<path d="M415.706 232.509V231.922L417.521 230.042C417.715 229.837 417.875 229.658 418.001 229.505C418.128 229.349 418.223 229.202 418.286 229.062C418.349 228.922 418.38 228.774 418.38 228.617C418.38 228.439 418.338 228.285 418.255 228.156C418.171 228.025 418.056 227.924 417.911 227.854C417.767 227.783 417.603 227.747 417.422 227.747C417.23 227.747 417.062 227.786 416.919 227.865C416.776 227.943 416.665 228.054 416.589 228.198C416.512 228.341 416.473 228.508 416.473 228.7H415.701C415.701 228.374 415.776 228.088 415.926 227.844C416.076 227.599 416.282 227.41 416.544 227.275C416.806 227.139 417.104 227.071 417.437 227.071C417.774 227.071 418.071 227.138 418.328 227.273C418.586 227.406 418.788 227.587 418.933 227.818C419.078 228.046 419.151 228.305 419.151 228.593C419.151 228.792 419.113 228.987 419.038 229.177C418.965 229.368 418.836 229.58 418.653 229.814C418.469 230.046 418.214 230.328 417.888 230.66L416.822 231.776V231.815H419.237V232.509H415.706ZM420.41 232.509L422.752 227.878V227.839H420.044V227.145H423.591V227.862L421.257 232.509H420.41Z" fill="#333333"/>
<rect x="410.975" y="220.24" width="82.1949" height="68.4958" stroke="#E0E0E0" stroke-width="0.526891"/>
<path d="M497.901 232.509V231.922L499.716 230.042C499.91 229.837 500.07 229.658 500.196 229.505C500.323 229.349 500.418 229.202 500.481 229.062C500.544 228.922 500.575 228.774 500.575 228.617C500.575 228.439 500.533 228.285 500.45 228.156C500.366 228.025 500.251 227.924 500.106 227.854C499.961 227.783 499.798 227.747 499.617 227.747C499.425 227.747 499.257 227.786 499.114 227.865C498.97 227.943 498.86 228.054 498.784 228.198C498.707 228.341 498.668 228.508 498.668 228.7H497.896C497.896 228.374 497.971 228.088 498.121 227.844C498.271 227.599 498.477 227.41 498.739 227.275C499.001 227.139 499.299 227.071 499.632 227.071C499.969 227.071 500.266 227.138 500.523 227.273C500.781 227.406 500.983 227.587 501.128 227.818C501.273 228.046 501.345 228.305 501.345 228.593C501.345 228.792 501.308 228.987 501.233 229.177C501.159 229.368 501.031 229.58 500.848 229.814C500.664 230.046 500.409 230.328 500.083 230.66L499.017 231.776V231.815H501.432V232.509H497.901ZM504.237 232.583C503.862 232.583 503.53 232.518 503.242 232.389C502.956 232.259 502.731 232.081 502.569 231.854C502.406 231.627 502.326 231.369 502.328 231.079C502.326 230.852 502.372 230.643 502.467 230.453C502.563 230.261 502.693 230.101 502.857 229.974C503.021 229.844 503.204 229.762 503.407 229.727V229.696C503.14 229.631 502.926 229.488 502.765 229.266C502.605 229.045 502.525 228.79 502.527 228.501C502.525 228.227 502.598 227.983 502.744 227.768C502.893 227.551 503.096 227.381 503.355 227.257C503.613 227.133 503.907 227.071 504.237 227.071C504.564 227.071 504.856 227.134 505.112 227.26C505.371 227.384 505.574 227.554 505.723 227.771C505.871 227.985 505.946 228.229 505.948 228.501C505.946 228.79 505.864 229.045 505.702 229.266C505.539 229.488 505.328 229.631 505.068 229.696V229.727C505.269 229.762 505.449 229.844 505.61 229.974C505.772 230.101 505.902 230.261 505.998 230.453C506.095 230.643 506.145 230.852 506.147 231.079C506.145 231.369 506.063 231.627 505.901 231.854C505.738 232.081 505.513 232.259 505.225 232.389C504.939 232.518 504.609 232.583 504.237 232.583ZM504.237 231.92C504.459 231.92 504.651 231.883 504.814 231.81C504.976 231.735 505.102 231.631 505.191 231.498C505.28 231.364 505.325 231.206 505.327 231.027C505.325 230.84 505.276 230.675 505.18 230.532C505.086 230.388 504.958 230.276 504.795 230.194C504.633 230.112 504.447 230.07 504.237 230.07C504.026 230.07 503.838 230.112 503.674 230.194C503.51 230.276 503.381 230.388 503.286 230.532C503.192 230.675 503.146 230.84 503.148 231.027C503.146 231.206 503.189 231.364 503.276 231.498C503.365 231.631 503.492 231.735 503.656 231.81C503.82 231.883 504.014 231.92 504.237 231.92ZM504.237 229.423C504.415 229.423 504.574 229.388 504.711 229.316C504.849 229.244 504.958 229.145 505.036 229.017C505.117 228.89 505.158 228.741 505.159 228.57C505.158 228.402 505.118 228.255 505.039 228.129C504.962 228.004 504.855 227.907 504.717 227.839C504.579 227.769 504.419 227.734 504.237 227.734C504.052 227.734 503.89 227.769 503.75 227.839C503.612 227.907 503.505 228.004 503.428 228.129C503.351 228.255 503.314 228.402 503.315 228.57C503.314 228.741 503.352 228.89 503.431 229.017C503.509 229.145 503.617 229.244 503.755 229.316C503.895 229.388 504.056 229.423 504.237 229.423Z" fill="#333333"/>
<rect x="493.17" y="220.24" width="82.1949" height="68.4958" stroke="#E0E0E0" stroke-width="0.526891"/>
<path d="M4.73119 301.005V300.418L6.54649 298.537C6.74033 298.333 6.90012 298.154 7.02586 298C7.15334 297.845 7.24851 297.697 7.31138 297.558C7.37425 297.418 7.40568 297.27 7.40568 297.112C7.40568 296.934 7.36377 296.781 7.27995 296.651C7.19612 296.52 7.08174 296.42 6.93679 296.35C6.79185 296.279 6.62857 296.243 6.44695 296.243C6.25485 296.243 6.08721 296.282 5.94401 296.361C5.80081 296.439 5.69079 296.55 5.61395 296.693C5.53712 296.837 5.4987 297.004 5.4987 297.196H4.72595C4.72595 296.87 4.80104 296.584 4.95122 296.34C5.10141 296.095 5.30747 295.906 5.56942 295.771C5.83137 295.635 6.12912 295.567 6.46267 295.567C6.79971 295.567 7.09658 295.634 7.35329 295.769C7.61175 295.901 7.81345 296.083 7.95839 296.314C8.10334 296.542 8.17581 296.801 8.17581 297.089C8.17581 297.288 8.13826 297.483 8.06317 297.673C7.98983 297.863 7.86147 298.076 7.67811 298.31C7.49474 298.542 7.23978 298.824 6.91322 299.156L5.84709 300.272V300.311H8.26225V301.005H4.73119ZM11.0389 295.567C11.2782 295.569 11.5139 295.612 11.7462 295.698C11.9784 295.783 12.188 295.923 12.3748 296.117C12.5634 296.311 12.7136 296.573 12.8254 296.903C12.9389 297.231 12.9965 297.64 12.9983 298.129C12.9983 298.599 12.9511 299.017 12.8568 299.384C12.7625 299.749 12.6272 300.057 12.4508 300.308C12.2762 300.56 12.064 300.751 11.8143 300.882C11.5646 301.013 11.2834 301.078 10.9708 301.078C10.6512 301.078 10.3674 301.015 10.1195 300.89C9.87149 300.764 9.66979 300.59 9.51437 300.368C9.35894 300.145 9.26202 299.888 9.2236 299.598H10.0225C10.0749 299.829 10.1815 300.016 10.3421 300.159C10.5045 300.3 10.7141 300.371 10.9708 300.371C11.3637 300.371 11.6702 300.2 11.8902 299.858C12.1103 299.514 12.2212 299.033 12.2229 298.417H12.181C12.0902 298.567 11.9767 298.696 11.8405 298.805C11.706 298.913 11.5549 298.997 11.3873 299.056C11.2197 299.115 11.0407 299.145 10.8503 299.145C10.5412 299.145 10.26 299.069 10.0068 298.917C9.75361 298.765 9.55191 298.557 9.40173 298.291C9.25155 298.026 9.17645 297.723 9.17645 297.382C9.17645 297.043 9.25329 296.736 9.40697 296.46C9.56239 296.184 9.77893 295.966 10.0566 295.805C10.336 295.643 10.6634 295.563 11.0389 295.567ZM11.0415 296.248C10.8372 296.248 10.653 296.299 10.4888 296.4C10.3264 296.499 10.1981 296.635 10.1038 296.806C10.0094 296.975 9.9623 297.164 9.9623 297.372C9.9623 297.58 10.0077 297.768 10.0985 297.938C10.1911 298.105 10.3168 298.239 10.4757 298.338C10.6364 298.436 10.8197 298.485 11.0258 298.485C11.1795 298.485 11.3227 298.455 11.4554 298.396C11.5881 298.337 11.7043 298.255 11.8038 298.15C11.9033 298.043 11.981 297.923 12.0369 297.788C12.0928 297.654 12.1208 297.512 12.1208 297.364C12.1208 297.167 12.0736 296.983 11.9793 296.814C11.8867 296.644 11.7593 296.508 11.5969 296.405C11.4344 296.3 11.2493 296.248 11.0415 296.248Z" fill="#333333"/>
<rect y="288.736" width="82.1949" height="68.4958" stroke="#E0E0E0" stroke-width="0.526891"/>
<path d="M88.7938 301.078C88.4341 301.078 88.1128 301.016 87.8299 300.892C87.5487 300.768 87.326 300.596 87.1619 300.376C86.9995 300.155 86.9122 299.898 86.8999 299.606H87.7225C87.7329 299.765 87.7862 299.903 87.8822 300.02C87.98 300.135 88.1075 300.224 88.2647 300.287C88.4219 300.35 88.5965 300.382 88.7886 300.382C88.9999 300.382 89.1867 300.345 89.3492 300.272C89.5133 300.198 89.6417 300.096 89.7342 299.965C89.8268 299.832 89.8731 299.68 89.8731 299.507C89.8731 299.327 89.8268 299.169 89.7342 299.033C89.6434 298.895 89.5098 298.786 89.3334 298.708C89.1588 298.629 88.9475 298.59 88.6995 298.59H88.2464V297.93H88.6995C88.8986 297.93 89.0732 297.894 89.2234 297.822C89.3754 297.751 89.4941 297.651 89.5797 297.524C89.6652 297.394 89.708 297.243 89.708 297.071C89.708 296.905 89.6705 296.761 89.5954 296.638C89.522 296.514 89.4173 296.417 89.2811 296.348C89.1466 296.278 88.9877 296.243 88.8043 296.243C88.6297 296.243 88.4664 296.275 88.3145 296.34C88.1643 296.403 88.042 296.493 87.9477 296.612C87.8534 296.729 87.8028 296.87 87.7958 297.034H87.0126C87.0213 296.744 87.1069 296.489 87.2693 296.269C87.4334 296.049 87.65 295.877 87.9189 295.753C88.1879 295.629 88.4865 295.567 88.8148 295.567C89.1588 295.567 89.4557 295.634 89.7054 295.769C89.9569 295.901 90.1507 296.079 90.2869 296.3C90.4249 296.522 90.493 296.765 90.4913 297.029C90.493 297.329 90.4092 297.584 90.2398 297.794C90.0721 298.003 89.8486 298.144 89.5692 298.215V298.257C89.9254 298.311 90.2014 298.453 90.397 298.682C90.5943 298.91 90.6921 299.194 90.6903 299.533C90.6921 299.828 90.61 300.093 90.4441 300.327C90.2799 300.561 90.0555 300.745 89.7709 300.879C89.4862 301.012 89.1606 301.078 88.7938 301.078ZM93.5482 301.094C93.1343 301.092 92.7807 300.983 92.4873 300.767C92.1939 300.55 91.9695 300.235 91.8141 299.821C91.6587 299.407 91.581 298.909 91.581 298.325C91.581 297.744 91.6587 297.247 91.8141 296.835C91.9713 296.423 92.1965 296.108 92.4899 295.892C92.785 295.675 93.1378 295.567 93.5482 295.567C93.9586 295.567 94.3105 295.676 94.6038 295.894C94.8972 296.111 95.1216 296.425 95.2771 296.837C95.4342 297.248 95.5128 297.744 95.5128 298.325C95.5128 298.91 95.4351 299.41 95.2797 299.824C95.1242 300.236 94.8998 300.551 94.6065 300.769C94.3131 300.986 93.9603 301.094 93.5482 301.094ZM93.5482 300.395C93.9114 300.395 94.1952 300.217 94.3995 299.863C94.6056 299.508 94.7086 298.996 94.7086 298.325C94.7086 297.88 94.6615 297.504 94.5672 297.196C94.4746 296.887 94.341 296.653 94.1664 296.494C93.9935 296.334 93.7874 296.253 93.5482 296.253C93.1867 296.253 92.9029 296.431 92.6969 296.788C92.4908 297.144 92.3869 297.656 92.3851 298.325C92.3851 298.772 92.4314 299.15 92.524 299.46C92.6183 299.767 92.7519 300 92.9248 300.159C93.0976 300.316 93.3055 300.395 93.5482 300.395Z" fill="#333333"/>
<rect x="82.1949" y="288.736" width="82.1949" height="68.4958" stroke="#E0E0E0" stroke-width="0.526891"/>
<path d="M170.989 301.078C170.629 301.078 170.308 301.016 170.025 300.892C169.744 300.768 169.521 300.596 169.357 300.376C169.194 300.155 169.107 299.898 169.095 299.606H169.917C169.928 299.765 169.981 299.903 170.077 300.02C170.175 300.135 170.302 300.224 170.46 300.287C170.617 300.35 170.791 300.382 170.984 300.382C171.195 300.382 171.382 300.345 171.544 300.272C171.708 300.198 171.837 300.096 171.929 299.965C172.022 299.832 172.068 299.68 172.068 299.507C172.068 299.327 172.022 299.169 171.929 299.033C171.838 298.895 171.705 298.786 171.528 298.708C171.354 298.629 171.142 298.59 170.894 298.59H170.441V297.93H170.894C171.094 297.93 171.268 297.894 171.418 297.822C171.57 297.751 171.689 297.651 171.775 297.524C171.86 297.394 171.903 297.243 171.903 297.071C171.903 296.905 171.865 296.761 171.79 296.638C171.717 296.514 171.612 296.417 171.476 296.348C171.342 296.278 171.183 296.243 170.999 296.243C170.825 296.243 170.661 296.275 170.509 296.34C170.359 296.403 170.237 296.493 170.143 296.612C170.048 296.729 169.998 296.87 169.991 297.034H169.208C169.216 296.744 169.302 296.489 169.464 296.269C169.628 296.049 169.845 295.877 170.114 295.753C170.383 295.629 170.681 295.567 171.01 295.567C171.354 295.567 171.651 295.634 171.9 295.769C172.152 295.901 172.346 296.079 172.482 296.3C172.62 296.522 172.688 296.765 172.686 297.029C172.688 297.329 172.604 297.584 172.435 297.794C172.267 298.003 172.044 298.144 171.764 298.215V298.257C172.12 298.311 172.396 298.453 172.592 298.682C172.789 298.91 172.887 299.194 172.885 299.533C172.887 299.828 172.805 300.093 172.639 300.327C172.475 300.561 172.25 300.745 171.966 300.879C171.681 301.012 171.356 301.078 170.989 301.078ZM175.911 295.64V301.005H175.099V296.452H175.067L173.784 297.291V296.515L175.122 295.64H175.911Z" fill="#333333"/>
<rect x="164.39" y="288.736" width="82.1949" height="68.4958" stroke="#E0E0E0" stroke-width="0.526891"/>
<path opacity="0.5" d="M253.184 301.094C252.77 301.092 252.416 300.983 252.123 300.767C251.829 300.55 251.605 300.235 251.45 299.821C251.294 299.407 251.216 298.909 251.216 298.325C251.216 297.744 251.294 297.247 251.45 296.835C251.607 296.423 251.832 296.108 252.125 295.892C252.421 295.675 252.773 295.567 253.184 295.567C253.594 295.567 253.946 295.676 254.239 295.894C254.533 296.111 254.757 296.425 254.913 296.837C255.07 297.248 255.148 297.744 255.148 298.325C255.148 298.91 255.071 299.41 254.915 299.824C254.76 300.236 254.535 300.551 254.242 300.769C253.949 300.986 253.596 301.094 253.184 301.094ZM253.184 300.395C253.547 300.395 253.831 300.217 254.035 299.863C254.241 299.508 254.344 298.996 254.344 298.325C254.344 297.88 254.297 297.504 254.203 297.196C254.11 296.887 253.977 296.653 253.802 296.494C253.629 296.334 253.423 296.253 253.184 296.253C252.822 296.253 252.538 296.431 252.332 296.788C252.126 297.144 252.022 297.656 252.021 298.325C252.021 298.772 252.067 299.15 252.159 299.46C252.254 299.767 252.387 300 252.56 300.159C252.733 300.316 252.941 300.395 253.184 300.395ZM258.113 295.64V301.005H257.301V296.452H257.269L255.986 297.291V296.515L257.324 295.64H258.113Z" fill="#333333"/>
<rect x="246.585" y="288.736" width="82.1949" height="68.4958" stroke="#E0E0E0" stroke-width="0.526891"/>
<path opacity="0.5" d="M335.379 301.094C334.965 301.092 334.611 300.983 334.318 300.767C334.024 300.55 333.8 300.235 333.645 299.821C333.489 299.407 333.411 298.909 333.411 298.325C333.411 297.744 333.489 297.247 333.645 296.835C333.802 296.423 334.027 296.108 334.32 295.892C334.615 295.675 334.968 295.567 335.379 295.567C335.789 295.567 336.141 295.676 336.434 295.894C336.728 296.111 336.952 296.425 337.107 296.837C337.265 297.248 337.343 297.744 337.343 298.325C337.343 298.91 337.266 299.41 337.11 299.824C336.955 300.236 336.73 300.551 336.437 300.769C336.144 300.986 335.791 301.094 335.379 301.094ZM335.379 300.395C335.742 300.395 336.026 300.217 336.23 299.863C336.436 299.508 336.539 298.996 336.539 298.325C336.539 297.88 336.492 297.504 336.398 297.196C336.305 296.887 336.171 296.653 335.997 296.494C335.824 296.334 335.618 296.253 335.379 296.253C335.017 296.253 334.733 296.431 334.527 296.788C334.321 297.144 334.217 297.656 334.216 298.325C334.216 298.772 334.262 299.15 334.354 299.46C334.449 299.767 334.582 300 334.755 300.159C334.928 300.316 335.136 300.395 335.379 300.395ZM338.273 301.005V300.418L340.088 298.537C340.282 298.333 340.441 298.154 340.567 298C340.695 297.845 340.79 297.697 340.853 297.558C340.916 297.418 340.947 297.27 340.947 297.112C340.947 296.934 340.905 296.781 340.821 296.651C340.737 296.52 340.623 296.42 340.478 296.35C340.333 296.279 340.17 296.243 339.988 296.243C339.796 296.243 339.629 296.282 339.485 296.361C339.342 296.439 339.232 296.55 339.155 296.693C339.078 296.837 339.04 297.004 339.04 297.196H338.267C338.267 296.87 338.342 296.584 338.493 296.34C338.643 296.095 338.849 295.906 339.111 295.771C339.373 295.635 339.67 295.567 340.004 295.567C340.341 295.567 340.638 295.634 340.895 295.769C341.153 295.901 341.355 296.083 341.5 296.314C341.645 296.542 341.717 296.801 341.717 297.089C341.717 297.288 341.68 297.483 341.604 297.673C341.531 297.863 341.403 298.076 341.219 298.31C341.036 298.542 340.781 298.824 340.455 299.156L339.388 300.272V300.311H341.804V301.005H338.273Z" fill="#333333"/>
<rect x="328.78" y="288.736" width="82.1949" height="68.4958" stroke="#E0E0E0" stroke-width="0.526891"/>
<path opacity="0.5" d="M417.574 301.094C417.16 301.092 416.806 300.983 416.513 300.767C416.219 300.55 415.995 300.235 415.839 299.821C415.684 299.407 415.606 298.909 415.606 298.325C415.606 297.744 415.684 297.247 415.839 296.835C415.997 296.423 416.222 296.108 416.515 295.892C416.81 295.675 417.163 295.567 417.574 295.567C417.984 295.567 418.336 295.676 418.629 295.894C418.923 296.111 419.147 296.425 419.302 296.837C419.46 297.248 419.538 297.744 419.538 298.325C419.538 298.91 419.46 299.41 419.305 299.824C419.15 300.236 418.925 300.551 418.632 300.769C418.338 300.986 417.986 301.094 417.574 301.094ZM417.574 300.395C417.937 300.395 418.221 300.217 418.425 299.863C418.631 299.508 418.734 298.996 418.734 298.325C418.734 297.88 418.687 297.504 418.593 297.196C418.5 296.887 418.366 296.653 418.192 296.494C418.019 296.334 417.813 296.253 417.574 296.253C417.212 296.253 416.928 296.431 416.722 296.788C416.516 297.144 416.412 297.656 416.411 298.325C416.411 298.772 416.457 299.15 416.549 299.46C416.644 299.767 416.777 300 416.95 300.159C417.123 300.316 417.331 300.395 417.574 300.395ZM422.335 301.078C421.975 301.078 421.654 301.016 421.371 300.892C421.09 300.768 420.867 300.596 420.703 300.376C420.541 300.155 420.453 299.898 420.441 299.606H421.264C421.274 299.765 421.328 299.903 421.424 300.02C421.521 300.135 421.649 300.224 421.806 300.287C421.963 300.35 422.138 300.382 422.33 300.382C422.541 300.382 422.728 300.345 422.89 300.272C423.055 300.198 423.183 300.096 423.276 299.965C423.368 299.832 423.414 299.68 423.414 299.507C423.414 299.327 423.368 299.169 423.276 299.033C423.185 298.895 423.051 298.786 422.875 298.708C422.7 298.629 422.489 298.59 422.241 298.59H421.788V297.93H422.241C422.44 297.93 422.615 297.894 422.765 297.822C422.917 297.751 423.035 297.651 423.121 297.524C423.207 297.394 423.249 297.243 423.249 297.071C423.249 296.905 423.212 296.761 423.137 296.638C423.063 296.514 422.959 296.417 422.822 296.348C422.688 296.278 422.529 296.243 422.346 296.243C422.171 296.243 422.008 296.275 421.856 296.34C421.706 296.403 421.583 296.493 421.489 296.612C421.395 296.729 421.344 296.87 421.337 297.034H420.554C420.563 296.744 420.648 296.489 420.811 296.269C420.975 296.049 421.191 295.877 421.46 295.753C421.729 295.629 422.028 295.567 422.356 295.567C422.7 295.567 422.997 295.634 423.247 295.769C423.498 295.901 423.692 296.079 423.828 296.3C423.966 296.522 424.034 296.765 424.033 297.029C424.034 297.329 423.95 297.584 423.781 297.794C423.613 298.003 423.39 298.144 423.111 298.215V298.257C423.467 298.311 423.743 298.453 423.938 298.682C424.136 298.91 424.233 299.194 424.232 299.533C424.233 299.828 424.151 300.093 423.985 300.327C423.821 300.561 423.597 300.745 423.312 300.879C423.028 301.012 422.702 301.078 422.335 301.078Z" fill="#333333"/>
<rect x="410.975" y="288.736" width="82.1949" height="68.4958" stroke="#E0E0E0" stroke-width="0.526891"/>
<path opacity="0.5" d="M499.769 301.094C499.355 301.092 499.001 300.983 498.708 300.767C498.414 300.55 498.19 300.235 498.034 299.821C497.879 299.407 497.801 298.909 497.801 298.325C497.801 297.744 497.879 297.247 498.034 296.835C498.192 296.423 498.417 296.108 498.71 295.892C499.005 295.675 499.358 295.567 499.769 295.567C500.179 295.567 500.531 295.676 500.824 295.894C501.118 296.111 501.342 296.425 501.497 296.837C501.655 297.248 501.733 297.744 501.733 298.325C501.733 298.91 501.655 299.41 501.5 299.824C501.345 300.236 501.12 300.551 500.827 300.769C500.533 300.986 500.181 301.094 499.769 301.094ZM499.769 300.395C500.132 300.395 500.416 300.217 500.62 299.863C500.826 299.508 500.929 298.996 500.929 298.325C500.929 297.88 500.882 297.504 500.788 297.196C500.695 296.887 500.561 296.653 500.387 296.494C500.214 296.334 500.008 296.253 499.769 296.253C499.407 296.253 499.123 296.431 498.917 296.788C498.711 297.144 498.607 297.656 498.605 298.325C498.605 298.772 498.652 299.15 498.744 299.46C498.839 299.767 498.972 300 499.145 300.159C499.318 300.316 499.526 300.395 499.769 300.395ZM502.55 299.957V299.302L504.868 295.64H505.384V296.604H505.057L503.398 299.229V299.271H506.576V299.957H502.55ZM505.093 301.005V299.758L505.099 299.46V295.64H505.866V301.005H505.093Z" fill="#333333"/>
<rect x="493.17" y="288.736" width="82.1949" height="68.4958" stroke="#E0E0E0" stroke-width="0.526891"/>
</g>
<defs>
<clipPath id="clip0_5_96">
<rect width="571" height="357" fill="white"/>
</clipPath>
<clipPath id="clip1_5_96">
<rect width="570.623" height="12.6454" fill="white" transform="translate(4.742)"/>
</clipPath>
</defs>
</svg>
